<?xml version="1.0" encoding="iso-8859-1"?>
<!-- Generator: Adobe Illustrator 19.0.0, SVG Export Plug-In . SVG Version: 6.00 Build 0)  -->
<svg version="1.1" id="Capa_1" xmlns="http://www.w3.org/2000/svg" xmlns:xlink="http://www.w3.org/1999/xlink" x="0px" y="0px"
	 viewBox="0 0 414 414" style="enable-background:new 0 0 414 414;" xml:space="preserve">
<rect x="353" y="192.2" style="fill:#ED664C;" width="51.9" height="143.6"/>
<g>
	<rect x="353" y="166.1" style="fill:#FDC75B;" width="51.9" height="26.1"/>
	<polygon style="fill:#FDC75B;" points="404.9,59.6 404.9,166.1 353,166.1 353,59.6 366.4,59.6 397.1,59.6 	"/>
</g>
<polygon style="fill:#ED664C;" points="404.9,335.8 378.9,389.2 353,335.8 "/>
<g>
	<path style="fill:#FDC75B;" d="M379.1,22.6c10.1,0,18.3,8.3,18.2,18.4l-0.1,16.9v1.7h-30.7l-5.7-0.1v-1.6v-17
		c0-10.1,8.1-18.2,18.2-18.3C378.9,22.6,379,22.6,379.1,22.6z"/>
	<path style="fill:#FDC75B;" d="M287.9,133.3v224.5c0,17.3-14,31.3-31.3,31.3H42.5c-17.3,0-31.3-14-31.3-31.3V55
		c0-17.3,14-31.3,31.3-31.3H173v88.8c0,11.5,9.3,20.9,20.9,20.9h94V133.3z"/>
</g>
<path style="fill:#ED664C;" d="M287.9,133.3h-94c-11.5,0-20.9-9.3-20.9-20.9V23.7h2.6l112.3,105.5L287.9,133.3L287.9,133.3z"/>
<path d="M181.5,17.5c-1.9-1.7-4.3-2.6-6.8-2.6H41.5C18.7,14.9,0,33.2,0,56v302.9C0,381.7,18.7,400,41.5,400h214.1
	c22.8,0,41.4-18.3,41.4-41.1V130.1c0-2.8-1.2-5.3-3.2-7.2L181.5,17.5z M182,45.3l84.1,78.6h-73.2c-6,0-10.9-4.5-10.9-10.5L182,45.3
	L182,45.3z M255.6,379.9H41.5c-11.8,0-21.5-9.3-21.5-21.1V56c0-11.8,9.7-21.1,21.5-21.1H162v78.5c0,17,13.9,30.5,30.9,30.5H277
	v214.9C277,370.6,267.3,379.9,255.6,379.9z"/>
<path d="M229.5,249.9H62.4c-5.5,0-10,4.5-10,10s4.5,10,10,10h167.1c5.5,0,10-4.5,10-10S235,249.9,229.5,249.9z"/>
<path d="M62.4,206.9h88.8c5.5,0,10-4.5,10-10s-4.5-10-10-10H62.4c-5.5,0-10,4.5-10,10S56.8,206.9,62.4,206.9z"/>
<path d="M229.5,311.9H62.4c-5.5,0-10,4.5-10,10s4.5,10,10,10h167.1c5.5,0,10-4.5,10-10S235,311.9,229.5,311.9z"/>
<path d="M406.2,50.9v-8.8c0.1-7.6-2.8-14.6-8.2-20c-5.3-5.4-12.5-8.2-20-8.2h-0.3c-15.4,0-27.7,12.5-27.7,28v8.6l-24-0.6
	c0,0,0,0-0.1,0c-2.6,0-5.1,1.3-7,3.1c-1.9,1.9-2.9,4.7-2.9,7.3v110.4c0,5.5,4.5,10,10,10s10-4.5,10-10V70.4h6V157v20v6.1v20v133.6
	c0,1.5,0.3,3,1,4.4l25.9,53.4c1.7,3.4,5.2,5.6,9,5.6s7.3-2.2,9-5.6l26-53.4c0.7-1.4,1.1-2.9,1.1-4.4V203.2v-20v-6.1v-20V60.6
	C414,55.9,410.6,52,406.2,50.9z M377.9,33.9h0.2c2.2,0,4.2,0.7,5.8,2.3c1.6,1.6,2.4,3.7,2.4,5.9l-0.1,8.8H370v-9
	C370,37.4,373.4,33.9,377.9,33.9z M377.9,367.4l-10-20.5h19.9L377.9,367.4z M394,326.9h-32v-124h32V326.9z M394,182.9h-32v-6h32
	V182.9z M362,156.9v-86h3.3h0.1H394v86H362z"/>
<g>
</g>
<g>
</g>
<g>
</g>
<g>
</g>
<g>
</g>
<g>
</g>
<g>
</g>
<g>
</g>
<g>
</g>
<g>
</g>
<g>
</g>
<g>
</g>
<g>
</g>
<g>
</g>
<g>
</g>
</svg>
