<?xml version="1.0" encoding="UTF-8" standalone="no"?>
<!DOCTYPE svg PUBLIC "-//W3C//DTD SVG 1.1//EN" "http://www.w3.org/Graphics/SVG/1.1/DTD/svg11.dtd">
<svg width="100%" height="100%" viewBox="0 0 1583 287" version="1.1" xmlns="http://www.w3.org/2000/svg" xmlns:xlink="http://www.w3.org/1999/xlink" xml:space="preserve" xmlns:serif="http://www.serif.com/" style="fill-rule:evenodd;clip-rule:evenodd;stroke-linejoin:round;stroke-miterlimit:2;">
    <g transform="matrix(1,0,0,1,-379,-2912)">
        <g transform="matrix(3.01672,0,0,3.01672,-1876.95,-1273.06)">
            <text x="902.13px" y="1444.97px" style="font-family:'Exotic350BT-Bold', 'Exotc350 Bd BT', fantasy;font-size:50px;">DAMIAN JÓRGA</text>
        </g>
        <g transform="matrix(1.41153,0,0,1.41153,-250.904,1024.31)">
            <text x="880.8px" y="1518.44px" style="font-family:'Candara', sans-serif;font-size:50px;">Junior front-end Developer</text>
        </g>
        <g transform="matrix(0.605516,0,0,0.605516,149.904,1259.19)">
            <path d="M1011,2932.55C1011,2857.14 949.864,2796 874.45,2796C693.808,2796 398,2796 398,2796L398,3054.51C398,3130.44 459.557,3192 535.491,3192L1011,3192L1011,2932.55Z"/>
        </g>
        <g transform="matrix(4.03788,0,0,4.03788,-2116.81,-8971.94)">
            <text x="635.112px" y="2996.84px" style="font-family:'Candara', sans-serif;font-size:50px;fill:white;">&lt;/&gt;</text>
        </g>
    </g>
</svg>
