<?xml version="1.0" encoding="UTF-8" standalone="no"?>
<!DOCTYPE svg PUBLIC "-//W3C//DTD SVG 1.1//EN" "http://www.w3.org/Graphics/SVG/1.1/DTD/svg11.dtd">
<svg width="100%" height="100%" viewBox="0 0 1741 341" version="1.1" xmlns="http://www.w3.org/2000/svg" xmlns:xlink="http://www.w3.org/1999/xlink" xml:space="preserve" xmlns:serif="http://www.serif.com/" style="fill-rule:evenodd;clip-rule:evenodd;stroke-linejoin:round;stroke-miterlimit:2;">
    <g transform="matrix(1,0,0,1,-302,-2886)">
        <g>
            <g transform="matrix(3.01672,0,0,3.01672,-1876.95,-1273.06)">
                <g transform="matrix(50,0,0,50,902.13,1444.97)">
                    <path d="M0.262,-0.565L0.262,-0.088L0.325,-0.088C0.385,-0.088 0.432,-0.109 0.465,-0.15C0.498,-0.191 0.514,-0.25 0.514,-0.326C0.514,-0.402 0.498,-0.461 0.465,-0.503C0.432,-0.544 0.385,-0.565 0.325,-0.565L0.262,-0.565ZM0.079,-0L0.079,-0.653L0.3,-0.653C0.364,-0.653 0.416,-0.648 0.456,-0.639C0.495,-0.63 0.531,-0.614 0.563,-0.593C0.61,-0.562 0.646,-0.523 0.672,-0.476C0.698,-0.428 0.711,-0.378 0.711,-0.325C0.711,-0.274 0.701,-0.227 0.681,-0.183C0.661,-0.14 0.632,-0.102 0.594,-0.07C0.567,-0.047 0.535,-0.03 0.498,-0.018C0.46,-0.006 0.421,-0 0.378,-0L0.079,-0Z" style="fill-rule:nonzero;"/>
                </g>
                <g transform="matrix(50,0,0,50,939.386,1444.97)">
                    <path d="M0.183,-0.276L0.344,-0.276L0.26,-0.51L0.183,-0.276ZM-0.003,-0L0.221,-0.653L0.398,-0.653L0.637,-0L0.443,-0L0.374,-0.193L0.155,-0.193L0.09,-0L-0.003,-0Z" style="fill-rule:nonzero;"/>
                </g>
                <g transform="matrix(50,0,0,50,971.075,1444.97)">
                    <path d="M0.079,-0L0.079,-0.653L0.25,-0.653L0.397,-0.301L0.543,-0.653L0.722,-0.653L0.722,-0L0.54,-0L0.54,-0.429L0.364,-0L0.346,-0L0.174,-0.41L0.174,-0L0.079,-0Z" style="fill-rule:nonzero;"/>
                </g>
                <g transform="matrix(50,0,0,50,1011.11,1444.97)">
                    <rect x="0.081" y="-0.653" width="0.183" height="0.653" style="fill-rule:nonzero;"/>
                </g>
                <g transform="matrix(50,0,0,50,1028.37,1444.97)">
                    <path d="M0.183,-0.276L0.344,-0.276L0.26,-0.51L0.183,-0.276ZM-0.003,-0L0.221,-0.653L0.398,-0.653L0.637,-0L0.443,-0L0.374,-0.193L0.155,-0.193L0.09,-0L-0.003,-0Z" style="fill-rule:nonzero;"/>
                </g>
                <g transform="matrix(50,0,0,50,1060.06,1444.97)">
                    <path d="M0.079,-0L0.079,-0.653L0.28,-0.653L0.496,-0.319L0.496,-0.653L0.594,-0.653L0.594,-0L0.488,-0L0.176,-0.477L0.176,-0L0.079,-0Z" style="fill-rule:nonzero;"/>
                </g>
                <g transform="matrix(50,0,0,50,1109.21,1444.97)">
                    <path d="M-0.008,-0.085L0.011,-0.085C0.056,-0.085 0.086,-0.094 0.102,-0.114C0.117,-0.133 0.125,-0.176 0.125,-0.245L0.125,-0.653L0.308,-0.653L0.308,-0.217C0.308,-0.139 0.289,-0.083 0.25,-0.049C0.211,-0.015 0.147,0.002 0.057,0.002C0.04,0.002 0.027,0.002 0.018,0.001C0.008,0.001 0,0.001 -0.008,-0L-0.008,-0.085Z" style="fill-rule:nonzero;"/>
                </g>
                <g transform="matrix(50,0,0,50,1128.4,1444.97)">
                    <path d="M0.232,-0.325C0.232,-0.243 0.245,-0.18 0.272,-0.134C0.299,-0.088 0.335,-0.065 0.382,-0.065C0.429,-0.065 0.465,-0.088 0.492,-0.134C0.519,-0.18 0.532,-0.243 0.532,-0.325C0.532,-0.407 0.519,-0.471 0.492,-0.516C0.466,-0.562 0.429,-0.585 0.382,-0.585C0.335,-0.585 0.298,-0.562 0.272,-0.516C0.245,-0.471 0.232,-0.407 0.232,-0.325ZM0.382,-0.666C0.427,-0.666 0.47,-0.659 0.512,-0.644C0.553,-0.629 0.589,-0.608 0.619,-0.581C0.655,-0.549 0.683,-0.511 0.701,-0.468C0.72,-0.424 0.729,-0.376 0.729,-0.324C0.729,-0.272 0.72,-0.225 0.701,-0.182C0.682,-0.139 0.655,-0.101 0.619,-0.069C0.589,-0.042 0.553,-0.021 0.512,-0.006C0.471,0.009 0.427,0.016 0.382,0.016C0.337,0.016 0.293,0.009 0.252,-0.006C0.211,-0.021 0.175,-0.042 0.145,-0.069C0.109,-0.102 0.081,-0.14 0.063,-0.183C0.044,-0.226 0.035,-0.274 0.035,-0.326C0.035,-0.377 0.045,-0.425 0.063,-0.468C0.082,-0.512 0.109,-0.55 0.145,-0.582C0.175,-0.609 0.21,-0.629 0.251,-0.644C0.293,-0.659 0.336,-0.666 0.382,-0.666ZM0.312,-0.721L0.412,-0.891L0.51,-0.891L0.371,-0.721L0.312,-0.721Z" style="fill-rule:nonzero;"/>
                </g>
                <g transform="matrix(50,0,0,50,1166.61,1444.97)">
                    <path d="M0.079,-0L0.079,-0.653L0.364,-0.653C0.446,-0.653 0.51,-0.635 0.557,-0.599C0.604,-0.564 0.627,-0.515 0.627,-0.453C0.627,-0.408 0.614,-0.371 0.589,-0.342C0.563,-0.313 0.526,-0.293 0.475,-0.281L0.633,-0L0.428,-0L0.269,-0.332L0.31,-0.332C0.355,-0.332 0.389,-0.342 0.411,-0.361C0.433,-0.38 0.444,-0.41 0.444,-0.449C0.444,-0.491 0.432,-0.522 0.41,-0.542C0.387,-0.562 0.351,-0.572 0.303,-0.572L0.257,-0.572L0.257,-0L0.079,-0Z" style="fill-rule:nonzero;"/>
                </g>
                <g transform="matrix(50,0,0,50,1200.05,1444.97)">
                    <path d="M0.709,-0.103C0.664,-0.064 0.615,-0.035 0.56,-0.014C0.505,0.006 0.448,0.016 0.388,0.016C0.342,0.016 0.3,0.01 0.261,-0.003C0.222,-0.016 0.188,-0.035 0.157,-0.06C0.116,-0.094 0.086,-0.132 0.065,-0.177C0.045,-0.221 0.035,-0.271 0.035,-0.328C0.035,-0.377 0.045,-0.424 0.066,-0.469C0.086,-0.514 0.114,-0.552 0.151,-0.584C0.183,-0.611 0.219,-0.632 0.259,-0.646C0.3,-0.66 0.343,-0.667 0.39,-0.667C0.45,-0.667 0.502,-0.655 0.547,-0.631C0.591,-0.607 0.63,-0.57 0.662,-0.52L0.579,-0.459C0.559,-0.501 0.535,-0.533 0.506,-0.554C0.478,-0.575 0.445,-0.586 0.408,-0.586C0.352,-0.586 0.308,-0.563 0.277,-0.518C0.246,-0.472 0.231,-0.408 0.231,-0.325C0.231,-0.25 0.248,-0.188 0.283,-0.141C0.318,-0.094 0.363,-0.071 0.419,-0.071C0.44,-0.071 0.459,-0.074 0.478,-0.08C0.496,-0.087 0.514,-0.096 0.531,-0.109L0.531,-0.291L0.709,-0.291L0.709,-0.103Z" style="fill-rule:nonzero;"/>
                </g>
                <g transform="matrix(50,0,0,50,1236.8,1444.97)">
                    <path d="M0.183,-0.276L0.344,-0.276L0.26,-0.51L0.183,-0.276ZM-0.003,-0L0.221,-0.653L0.398,-0.653L0.637,-0L0.443,-0L0.374,-0.193L0.155,-0.193L0.09,-0L-0.003,-0Z" style="fill-rule:nonzero;"/>
                </g>
            </g>
            <g transform="matrix(1.41153,0,0,1.41153,-250.904,1024.31)">
                <g transform="matrix(50,0,0,50,880.8,1518.44)">
                    <path d="M0.334,-0.636C0.332,-0.586 0.33,-0.531 0.329,-0.471C0.328,-0.411 0.328,-0.345 0.328,-0.272C0.328,-0.22 0.323,-0.177 0.314,-0.143C0.306,-0.108 0.292,-0.08 0.273,-0.056C0.254,-0.033 0.23,-0.015 0.201,-0.004C0.172,0.007 0.137,0.013 0.096,0.013C0.064,0.013 0.036,0.01 0.011,0.003L0.018,-0.068C0.041,-0.058 0.065,-0.052 0.09,-0.052C0.118,-0.052 0.143,-0.056 0.164,-0.064C0.185,-0.072 0.202,-0.085 0.214,-0.102C0.227,-0.118 0.236,-0.139 0.241,-0.164C0.246,-0.189 0.249,-0.221 0.249,-0.261C0.249,-0.409 0.247,-0.534 0.242,-0.636L0.334,-0.636Z" style="fill-rule:nonzero;"/>
                </g>
                <g transform="matrix(50,0,0,50,901.576,1518.44)">
                    <path d="M0.476,-0L0.4,0.002C0.396,-0.016 0.394,-0.031 0.394,-0.042L0.389,-0.042C0.345,-0.006 0.293,0.012 0.231,0.012C0.175,0.012 0.134,-0.001 0.108,-0.029C0.083,-0.056 0.07,-0.111 0.07,-0.193C0.07,-0.205 0.07,-0.222 0.071,-0.245C0.071,-0.268 0.072,-0.284 0.072,-0.292C0.072,-0.34 0.069,-0.397 0.063,-0.461L0.154,-0.465C0.15,-0.402 0.148,-0.348 0.148,-0.304C0.148,-0.201 0.155,-0.134 0.168,-0.103C0.181,-0.072 0.211,-0.057 0.257,-0.057C0.309,-0.057 0.352,-0.07 0.386,-0.096C0.386,-0.277 0.385,-0.399 0.381,-0.461L0.469,-0.465C0.467,-0.404 0.465,-0.319 0.465,-0.211C0.465,-0.142 0.469,-0.071 0.476,-0Z" style="fill-rule:nonzero;"/>
                </g>
                <g transform="matrix(50,0,0,50,928.358,1518.44)">
                    <path d="M0.478,-0L0.389,-0C0.396,-0.086 0.4,-0.179 0.4,-0.28C0.4,-0.33 0.39,-0.365 0.369,-0.383C0.349,-0.401 0.32,-0.411 0.282,-0.411C0.236,-0.411 0.193,-0.394 0.154,-0.36C0.154,-0.249 0.155,-0.129 0.156,-0L0.067,-0C0.073,-0.111 0.076,-0.191 0.076,-0.24C0.076,-0.316 0.069,-0.39 0.054,-0.462L0.14,-0.474L0.149,-0.415L0.153,-0.415C0.201,-0.458 0.253,-0.48 0.308,-0.48C0.362,-0.48 0.404,-0.468 0.434,-0.444C0.463,-0.42 0.478,-0.378 0.478,-0.316C0.478,-0.31 0.478,-0.298 0.477,-0.28C0.476,-0.262 0.476,-0.249 0.476,-0.243C0.476,-0.189 0.477,-0.108 0.478,-0Z" style="fill-rule:nonzero;"/>
                </g>
                <g transform="matrix(50,0,0,50,955.433,1518.44)">
                    <path d="M0.153,-0L0.064,-0C0.069,-0.065 0.071,-0.139 0.071,-0.223C0.071,-0.317 0.066,-0.396 0.054,-0.46L0.152,-0.473C0.148,-0.405 0.146,-0.322 0.146,-0.223C0.146,-0.145 0.148,-0.071 0.153,-0ZM0.173,-0.61C0.173,-0.594 0.168,-0.579 0.157,-0.567C0.146,-0.555 0.131,-0.549 0.112,-0.549C0.095,-0.549 0.082,-0.554 0.073,-0.565C0.064,-0.575 0.059,-0.588 0.059,-0.603C0.059,-0.619 0.065,-0.633 0.076,-0.646C0.087,-0.658 0.102,-0.664 0.122,-0.664C0.138,-0.664 0.15,-0.658 0.159,-0.648C0.169,-0.637 0.173,-0.625 0.173,-0.61Z" style="fill-rule:nonzero;"/>
                </g>
                <g transform="matrix(50,0,0,50,966.322,1518.44)">
                    <path d="M0.51,-0.246C0.51,-0.163 0.486,-0.098 0.438,-0.051C0.391,-0.004 0.334,0.019 0.27,0.019C0.209,0.019 0.157,-0.002 0.114,-0.043C0.07,-0.084 0.048,-0.143 0.048,-0.218C0.048,-0.302 0.072,-0.367 0.12,-0.415C0.168,-0.462 0.225,-0.485 0.29,-0.485C0.35,-0.485 0.402,-0.464 0.445,-0.423C0.489,-0.381 0.51,-0.322 0.51,-0.246ZM0.426,-0.229C0.426,-0.28 0.413,-0.325 0.387,-0.365C0.362,-0.404 0.326,-0.424 0.278,-0.424C0.231,-0.424 0.195,-0.405 0.17,-0.368C0.145,-0.33 0.132,-0.287 0.132,-0.237C0.132,-0.186 0.145,-0.141 0.171,-0.102C0.196,-0.062 0.233,-0.042 0.28,-0.042C0.327,-0.042 0.363,-0.061 0.388,-0.099C0.413,-0.136 0.426,-0.18 0.426,-0.229Z" style="fill-rule:nonzero;"/>
                </g>
                <g transform="matrix(50,0,0,50,994.252,1518.44)">
                    <path d="M0.359,-0.464L0.337,-0.386C0.312,-0.396 0.288,-0.401 0.267,-0.401C0.205,-0.401 0.166,-0.372 0.147,-0.314C0.147,-0.164 0.148,-0.06 0.15,-0L0.064,-0C0.069,-0.103 0.072,-0.183 0.072,-0.24C0.072,-0.317 0.064,-0.391 0.049,-0.462L0.134,-0.474C0.14,-0.438 0.144,-0.414 0.144,-0.402L0.147,-0.402C0.183,-0.454 0.224,-0.48 0.271,-0.48C0.295,-0.48 0.325,-0.475 0.359,-0.464Z" style="fill-rule:nonzero;"/>
                </g>
                <g transform="matrix(50,0,0,50,1022.82,1518.44)">
                    <path d="M0.339,-0.693L0.325,-0.628C0.305,-0.633 0.286,-0.636 0.266,-0.636C0.236,-0.636 0.216,-0.624 0.205,-0.6C0.195,-0.577 0.189,-0.528 0.189,-0.454C0.222,-0.454 0.267,-0.456 0.325,-0.459L0.322,-0.386C0.256,-0.388 0.212,-0.389 0.189,-0.389C0.189,-0.241 0.191,-0.111 0.195,-0L0.108,-0C0.112,-0.108 0.115,-0.238 0.115,-0.389C0.095,-0.389 0.06,-0.388 0.011,-0.386L0.014,-0.458C0.059,-0.455 0.093,-0.454 0.115,-0.454C0.115,-0.54 0.127,-0.603 0.151,-0.642C0.175,-0.682 0.213,-0.701 0.266,-0.701C0.289,-0.701 0.313,-0.698 0.339,-0.693Z" style="fill-rule:nonzero;"/>
                </g>
                <g transform="matrix(50,0,0,50,1039.76,1518.44)">
                    <path d="M0.359,-0.464L0.337,-0.386C0.312,-0.396 0.288,-0.401 0.267,-0.401C0.205,-0.401 0.166,-0.372 0.147,-0.314C0.147,-0.164 0.148,-0.06 0.15,-0L0.064,-0C0.069,-0.103 0.072,-0.183 0.072,-0.24C0.072,-0.317 0.064,-0.391 0.049,-0.462L0.134,-0.474C0.14,-0.438 0.144,-0.414 0.144,-0.402L0.147,-0.402C0.183,-0.454 0.224,-0.48 0.271,-0.48C0.295,-0.48 0.325,-0.475 0.359,-0.464Z" style="fill-rule:nonzero;"/>
                </g>
                <g transform="matrix(50,0,0,50,1057.48,1518.44)">
                    <path d="M0.51,-0.246C0.51,-0.163 0.486,-0.098 0.438,-0.051C0.391,-0.004 0.334,0.019 0.27,0.019C0.209,0.019 0.157,-0.002 0.114,-0.043C0.07,-0.084 0.048,-0.143 0.048,-0.218C0.048,-0.302 0.072,-0.367 0.12,-0.415C0.168,-0.462 0.225,-0.485 0.29,-0.485C0.35,-0.485 0.402,-0.464 0.445,-0.423C0.489,-0.381 0.51,-0.322 0.51,-0.246ZM0.426,-0.229C0.426,-0.28 0.413,-0.325 0.387,-0.365C0.362,-0.404 0.326,-0.424 0.278,-0.424C0.231,-0.424 0.195,-0.405 0.17,-0.368C0.145,-0.33 0.132,-0.287 0.132,-0.237C0.132,-0.186 0.145,-0.141 0.171,-0.102C0.196,-0.062 0.233,-0.042 0.28,-0.042C0.327,-0.042 0.363,-0.061 0.388,-0.099C0.413,-0.136 0.426,-0.18 0.426,-0.229Z" style="fill-rule:nonzero;"/>
                </g>
                <g transform="matrix(50,0,0,50,1085.41,1518.44)">
                    <path d="M0.478,-0L0.389,-0C0.396,-0.086 0.4,-0.179 0.4,-0.28C0.4,-0.33 0.39,-0.365 0.369,-0.383C0.349,-0.401 0.32,-0.411 0.282,-0.411C0.236,-0.411 0.193,-0.394 0.154,-0.36C0.154,-0.249 0.155,-0.129 0.156,-0L0.067,-0C0.073,-0.111 0.076,-0.191 0.076,-0.24C0.076,-0.316 0.069,-0.39 0.054,-0.462L0.14,-0.474L0.149,-0.415L0.153,-0.415C0.201,-0.458 0.253,-0.48 0.308,-0.48C0.362,-0.48 0.404,-0.468 0.434,-0.444C0.463,-0.42 0.478,-0.378 0.478,-0.316C0.478,-0.31 0.478,-0.298 0.477,-0.28C0.476,-0.262 0.476,-0.249 0.476,-0.243C0.476,-0.189 0.477,-0.108 0.478,-0Z" style="fill-rule:nonzero;"/>
                </g>
                <g transform="matrix(50,0,0,50,1112.49,1518.44)">
                    <path d="M0.332,-0.067L0.326,-0.004C0.3,0.006 0.276,0.01 0.253,0.01C0.195,0.01 0.155,-0.005 0.133,-0.034C0.112,-0.064 0.101,-0.118 0.101,-0.194C0.101,-0.244 0.101,-0.309 0.102,-0.389C0.084,-0.389 0.057,-0.388 0.021,-0.386L0.024,-0.457C0.055,-0.455 0.083,-0.454 0.107,-0.454C0.107,-0.474 0.109,-0.52 0.112,-0.593L0.189,-0.601C0.183,-0.533 0.181,-0.484 0.181,-0.454C0.213,-0.454 0.259,-0.456 0.321,-0.459L0.318,-0.386C0.259,-0.388 0.212,-0.389 0.177,-0.389C0.176,-0.34 0.176,-0.285 0.176,-0.223C0.176,-0.156 0.183,-0.112 0.197,-0.09C0.211,-0.068 0.237,-0.058 0.276,-0.058C0.289,-0.058 0.307,-0.061 0.332,-0.067Z" style="fill-rule:nonzero;"/>
                </g>
                <g transform="matrix(50,0,0,50,1130.43,1518.44)">
                    <path d="M0.234,-0.284L0.228,-0.221L0.019,-0.214L0.023,-0.276L0.234,-0.284Z" style="fill-rule:nonzero;"/>
                </g>
                <g transform="matrix(50,0,0,50,1143.03,1518.44)">
                    <path d="M0.465,-0.287C0.465,-0.273 0.464,-0.254 0.463,-0.23L0.127,-0.224C0.131,-0.177 0.149,-0.137 0.183,-0.105C0.216,-0.073 0.261,-0.057 0.316,-0.057C0.365,-0.057 0.412,-0.063 0.455,-0.075L0.447,-0.006C0.415,0.007 0.369,0.013 0.309,0.013C0.224,0.013 0.159,-0.01 0.115,-0.056C0.071,-0.102 0.048,-0.159 0.048,-0.225C0.048,-0.296 0.069,-0.357 0.109,-0.408C0.15,-0.46 0.204,-0.485 0.272,-0.485C0.335,-0.485 0.383,-0.467 0.416,-0.43C0.448,-0.393 0.465,-0.345 0.465,-0.287ZM0.383,-0.286C0.383,-0.377 0.345,-0.423 0.269,-0.423C0.19,-0.423 0.144,-0.375 0.13,-0.28L0.383,-0.286Z" style="fill-rule:nonzero;"/>
                </g>
                <g transform="matrix(50,0,0,50,1168.69,1518.44)">
                    <path d="M0.478,-0L0.389,-0C0.396,-0.086 0.4,-0.179 0.4,-0.28C0.4,-0.33 0.39,-0.365 0.369,-0.383C0.349,-0.401 0.32,-0.411 0.282,-0.411C0.236,-0.411 0.193,-0.394 0.154,-0.36C0.154,-0.249 0.155,-0.129 0.156,-0L0.067,-0C0.073,-0.111 0.076,-0.191 0.076,-0.24C0.076,-0.316 0.069,-0.39 0.054,-0.462L0.14,-0.474L0.149,-0.415L0.153,-0.415C0.201,-0.458 0.253,-0.48 0.308,-0.48C0.362,-0.48 0.404,-0.468 0.434,-0.444C0.463,-0.42 0.478,-0.378 0.478,-0.316C0.478,-0.31 0.478,-0.298 0.477,-0.28C0.476,-0.262 0.476,-0.249 0.476,-0.243C0.476,-0.189 0.477,-0.108 0.478,-0Z" style="fill-rule:nonzero;"/>
                </g>
                <g transform="matrix(50,0,0,50,1195.77,1518.44)">
                    <path d="M0.485,-0L0.413,0.002C0.41,-0.012 0.409,-0.027 0.409,-0.042L0.403,-0.042C0.369,-0.005 0.318,0.013 0.251,0.013C0.189,0.013 0.14,-0.009 0.103,-0.054C0.067,-0.099 0.048,-0.153 0.048,-0.217C0.048,-0.289 0.069,-0.351 0.109,-0.403C0.15,-0.455 0.207,-0.481 0.281,-0.481C0.334,-0.481 0.372,-0.47 0.395,-0.449L0.398,-0.449C0.398,-0.529 0.396,-0.609 0.392,-0.687L0.484,-0.69C0.478,-0.607 0.475,-0.499 0.475,-0.365C0.475,-0.229 0.479,-0.108 0.485,-0ZM0.407,-0.097C0.407,-0.198 0.404,-0.295 0.398,-0.389C0.372,-0.411 0.339,-0.422 0.3,-0.422C0.245,-0.422 0.204,-0.404 0.176,-0.367C0.149,-0.33 0.135,-0.284 0.135,-0.229C0.135,-0.18 0.148,-0.138 0.174,-0.104C0.2,-0.07 0.236,-0.053 0.282,-0.053C0.339,-0.053 0.381,-0.068 0.407,-0.097Z" style="fill-rule:nonzero;"/>
                </g>
                <g transform="matrix(50,0,0,50,1234.12,1518.44)">
                    <path d="M0.594,-0.341C0.594,-0.248 0.565,-0.167 0.506,-0.098C0.447,-0.028 0.365,0.007 0.261,0.007C0.227,0.007 0.171,0.005 0.092,-0C0.097,-0.101 0.099,-0.212 0.099,-0.334C0.099,-0.449 0.097,-0.549 0.092,-0.636L0.146,-0.636C0.159,-0.636 0.178,-0.636 0.205,-0.637C0.232,-0.638 0.249,-0.639 0.258,-0.639C0.373,-0.639 0.458,-0.61 0.512,-0.554C0.567,-0.497 0.594,-0.426 0.594,-0.341ZM0.509,-0.319C0.509,-0.391 0.486,-0.451 0.44,-0.5C0.394,-0.549 0.323,-0.573 0.227,-0.573C0.213,-0.573 0.194,-0.571 0.17,-0.568C0.173,-0.492 0.174,-0.414 0.174,-0.334C0.174,-0.246 0.176,-0.157 0.18,-0.066C0.206,-0.061 0.231,-0.059 0.255,-0.059C0.341,-0.059 0.405,-0.084 0.447,-0.135C0.488,-0.186 0.509,-0.247 0.509,-0.319Z" style="fill-rule:nonzero;"/>
                </g>
                <g transform="matrix(50,0,0,50,1266.25,1518.44)">
                    <path d="M0.465,-0.287C0.465,-0.273 0.464,-0.254 0.463,-0.23L0.127,-0.224C0.131,-0.177 0.149,-0.137 0.183,-0.105C0.216,-0.073 0.261,-0.057 0.316,-0.057C0.365,-0.057 0.412,-0.063 0.455,-0.075L0.447,-0.006C0.415,0.007 0.369,0.013 0.309,0.013C0.224,0.013 0.159,-0.01 0.115,-0.056C0.071,-0.102 0.048,-0.159 0.048,-0.225C0.048,-0.296 0.069,-0.357 0.109,-0.408C0.15,-0.46 0.204,-0.485 0.272,-0.485C0.335,-0.485 0.383,-0.467 0.416,-0.43C0.448,-0.393 0.465,-0.345 0.465,-0.287ZM0.383,-0.286C0.383,-0.377 0.345,-0.423 0.269,-0.423C0.19,-0.423 0.144,-0.375 0.13,-0.28L0.383,-0.286Z" style="fill-rule:nonzero;"/>
                </g>
                <g transform="matrix(50,0,0,50,1291.91,1518.44)">
                    <path d="M0.459,-0.464C0.459,-0.448 0.426,-0.371 0.36,-0.233C0.294,-0.095 0.261,-0.018 0.261,-0L0.196,-0C0.196,-0.023 0.167,-0.102 0.109,-0.239C0.051,-0.376 0.021,-0.451 0.021,-0.464L0.116,-0.464C0.116,-0.448 0.137,-0.386 0.18,-0.278C0.222,-0.169 0.243,-0.107 0.243,-0.092L0.248,-0.092C0.248,-0.107 0.268,-0.167 0.308,-0.271C0.348,-0.375 0.368,-0.44 0.368,-0.464L0.459,-0.464Z" style="fill-rule:nonzero;"/>
                </g>
                <g transform="matrix(50,0,0,50,1315.93,1518.44)">
                    <path d="M0.465,-0.287C0.465,-0.273 0.464,-0.254 0.463,-0.23L0.127,-0.224C0.131,-0.177 0.149,-0.137 0.183,-0.105C0.216,-0.073 0.261,-0.057 0.316,-0.057C0.365,-0.057 0.412,-0.063 0.455,-0.075L0.447,-0.006C0.415,0.007 0.369,0.013 0.309,0.013C0.224,0.013 0.159,-0.01 0.115,-0.056C0.071,-0.102 0.048,-0.159 0.048,-0.225C0.048,-0.296 0.069,-0.357 0.109,-0.408C0.15,-0.46 0.204,-0.485 0.272,-0.485C0.335,-0.485 0.383,-0.467 0.416,-0.43C0.448,-0.393 0.465,-0.345 0.465,-0.287ZM0.383,-0.286C0.383,-0.377 0.345,-0.423 0.269,-0.423C0.19,-0.423 0.144,-0.375 0.13,-0.28L0.383,-0.286Z" style="fill-rule:nonzero;"/>
                </g>
                <g transform="matrix(50,0,0,50,1341.59,1518.44)">
                    <path d="M0.159,-0L0.065,-0C0.071,-0.107 0.074,-0.229 0.074,-0.364C0.074,-0.496 0.069,-0.603 0.06,-0.687L0.159,-0.692C0.153,-0.603 0.149,-0.494 0.149,-0.364C0.149,-0.23 0.153,-0.109 0.159,-0Z" style="fill-rule:nonzero;"/>
                </g>
                <g transform="matrix(50,0,0,50,1353.04,1518.44)">
                    <path d="M0.51,-0.246C0.51,-0.163 0.486,-0.098 0.438,-0.051C0.391,-0.004 0.334,0.019 0.27,0.019C0.209,0.019 0.157,-0.002 0.114,-0.043C0.07,-0.084 0.048,-0.143 0.048,-0.218C0.048,-0.302 0.072,-0.367 0.12,-0.415C0.168,-0.462 0.225,-0.485 0.29,-0.485C0.35,-0.485 0.402,-0.464 0.445,-0.423C0.489,-0.381 0.51,-0.322 0.51,-0.246ZM0.426,-0.229C0.426,-0.28 0.413,-0.325 0.387,-0.365C0.362,-0.404 0.326,-0.424 0.278,-0.424C0.231,-0.424 0.195,-0.405 0.17,-0.368C0.145,-0.33 0.132,-0.287 0.132,-0.237C0.132,-0.186 0.145,-0.141 0.171,-0.102C0.196,-0.062 0.233,-0.042 0.28,-0.042C0.327,-0.042 0.363,-0.061 0.388,-0.099C0.413,-0.136 0.426,-0.18 0.426,-0.229Z" style="fill-rule:nonzero;"/>
                </g>
                <g transform="matrix(50,0,0,50,1380.97,1518.44)">
                    <path d="M0.507,-0.251C0.507,-0.181 0.487,-0.119 0.447,-0.066C0.407,-0.013 0.351,0.013 0.279,0.013C0.219,0.013 0.18,0.002 0.161,-0.019L0.156,-0.019C0.156,0.071 0.157,0.152 0.159,0.223L0.067,0.223C0.075,0.137 0.079,0.03 0.079,-0.098C0.079,-0.255 0.07,-0.376 0.054,-0.462L0.14,-0.474L0.147,-0.426L0.152,-0.426C0.184,-0.463 0.235,-0.481 0.306,-0.481C0.368,-0.481 0.417,-0.458 0.453,-0.413C0.489,-0.367 0.507,-0.313 0.507,-0.251ZM0.42,-0.239C0.42,-0.287 0.408,-0.329 0.382,-0.363C0.357,-0.397 0.321,-0.415 0.275,-0.415C0.217,-0.415 0.175,-0.397 0.149,-0.361C0.155,-0.252 0.157,-0.158 0.157,-0.08C0.184,-0.057 0.218,-0.046 0.26,-0.046C0.314,-0.046 0.354,-0.065 0.381,-0.103C0.407,-0.141 0.42,-0.186 0.42,-0.239Z" style="fill-rule:nonzero;"/>
                </g>
                <g transform="matrix(50,0,0,50,1408.75,1518.44)">
                    <path d="M0.465,-0.287C0.465,-0.273 0.464,-0.254 0.463,-0.23L0.127,-0.224C0.131,-0.177 0.149,-0.137 0.183,-0.105C0.216,-0.073 0.261,-0.057 0.316,-0.057C0.365,-0.057 0.412,-0.063 0.455,-0.075L0.447,-0.006C0.415,0.007 0.369,0.013 0.309,0.013C0.224,0.013 0.159,-0.01 0.115,-0.056C0.071,-0.102 0.048,-0.159 0.048,-0.225C0.048,-0.296 0.069,-0.357 0.109,-0.408C0.15,-0.46 0.204,-0.485 0.272,-0.485C0.335,-0.485 0.383,-0.467 0.416,-0.43C0.448,-0.393 0.465,-0.345 0.465,-0.287ZM0.383,-0.286C0.383,-0.377 0.345,-0.423 0.269,-0.423C0.19,-0.423 0.144,-0.375 0.13,-0.28L0.383,-0.286Z" style="fill-rule:nonzero;"/>
                </g>
                <g transform="matrix(50,0,0,50,1434.41,1518.44)">
                    <path d="M0.359,-0.464L0.337,-0.386C0.312,-0.396 0.288,-0.401 0.267,-0.401C0.205,-0.401 0.166,-0.372 0.147,-0.314C0.147,-0.164 0.148,-0.06 0.15,-0L0.064,-0C0.069,-0.103 0.072,-0.183 0.072,-0.24C0.072,-0.317 0.064,-0.391 0.049,-0.462L0.134,-0.474C0.14,-0.438 0.144,-0.414 0.144,-0.402L0.147,-0.402C0.183,-0.454 0.224,-0.48 0.271,-0.48C0.295,-0.48 0.325,-0.475 0.359,-0.464Z" style="fill-rule:nonzero;"/>
                </g>
            </g>
            <g transform="matrix(0.605516,0,0,0.605516,149.904,1259.19)">
                <path d="M1011,2932.55C1011,2857.14 949.864,2796 874.45,2796C693.808,2796 398,2796 398,2796L398,3054.51C398,3130.44 459.557,3192 535.491,3192L1011,3192L1011,2932.55Z"/>
            </g>
            <g transform="matrix(4.03788,0,0,4.03788,-2116.81,-8971.94)">
                <g transform="matrix(50,0,0,50,635.112,2996.84)">
                    <path d="M0.452,-0.073L0.412,-0.012L0.052,-0.229L0.052,-0.271L0.412,-0.488L0.452,-0.429L0.135,-0.255L0.135,-0.244L0.452,-0.073Z" style="fill:white;fill-rule:nonzero;"/>
                </g>
                <g transform="matrix(50,0,0,50,660.332,2996.84)">
                    <path d="M0.26,-0.71C0.26,-0.688 0.23,-0.553 0.17,-0.306C0.111,-0.059 0.081,0.092 0.081,0.147L0.007,0.147C0.007,0.126 0.037,-0.007 0.097,-0.251C0.157,-0.496 0.187,-0.649 0.187,-0.71L0.26,-0.71Z" style="fill:white;fill-rule:nonzero;"/>
                </g>
                <g transform="matrix(50,0,0,50,673.686,2996.84)">
                    <path d="M0.452,-0.229L0.093,-0.012L0.052,-0.073L0.37,-0.245L0.37,-0.256L0.052,-0.429L0.093,-0.488L0.452,-0.271L0.452,-0.229Z" style="fill:white;fill-rule:nonzero;"/>
                </g>
            </g>
        </g>
    </g>
</svg>
