<?xml version="1.0" encoding="iso-8859-1"?>
<!-- Generator: Adobe Illustrator 19.0.0, SVG Export Plug-In . SVG Version: 6.00 Build 0)  -->
<svg version="1.1" id="Capa_1" xmlns="http://www.w3.org/2000/svg" xmlns:xlink="http://www.w3.org/1999/xlink" x="0px" y="0px"
	 viewBox="0 0 445 445" style="enable-background:new 0 0 445 445;" xml:space="preserve">
<g>
	<path style="fill:#FDC75B;" d="M355.25,42.3l-0.1,31.7h-80.5V42.3c0-17.2,13.9-31.1,31-31.1h18.6
		C341.35,11.2,355.25,25.1,355.25,42.3z"/>
	<polygon style="fill:#FDC75B;" points="355.25,74 355.15,120.6 274.75,120.6 274.75,74 	"/>
</g>
<polygon style="fill:#ED664C;" points="355.15,120.6 354.95,357.5 275.05,357.5 274.75,120.6 "/>
<polygon style="fill:#FDC75B;" points="354.95,357.5 314.95,434.8 275.05,357.5 "/>
<polygon style="fill:#ED664C;" points="201.15,378.1 201.15,435.6 90.05,435.6 90.05,10.4 201.15,10.4 201.15,67.9 201.15,119.6 
	201.15,171.3 201.15,223 201.15,274.7 201.15,326.4 "/>
<path d="M264.65,42.2l0.1,31.8l0.3,283.5c0,1.6,0.4,3.2,1.1,4.6l39.9,77.4c1.7,3.3,5.1,5.5,8.9,5.5l0,0c3.7,0,7.2-2.2,8.9-5.5
	l40-77.3c0.7-1.4,1.1-3,1.1-4.6l0.3-237l0.1-78.4c0-22.7-18.4-41.2-41-41.2h-18.7C283.05,1,264.65,19.5,264.65,42.2z M314.95,413.5
	l-23.5-45.5h47L314.95,413.5z M344.95,348h-59.9l-0.2-217h60.4L344.95,348z M345.15,111h-60.4V84h60.5L345.15,111z M305.65,21h18.6
	c11.6,0,21,9.6,21,21.2V64h-60.6V42.2C284.65,30.6,294.15,21,305.65,21z"/>
<path d="M89.65,445h111c5.5,0,10-4.5,10-10V10c0-5.5-4.5-10-10-10h-111c-5.5,0-10,4.5-10,10v425C79.65,440.5,84.15,445,89.65,445z
	 M99.65,20h92v38h-24.1c-5.5,0-10,4.5-10,10s4.5,10,10,10h24.1v32h-49.9c-5.5,0-10,4.5-10,10s4.5,10,10,10h49.9v31h-24.1
	c-5.5,0-10,4.5-10,10s4.5,10,10,10h24.1v32h-49.9c-5.5,0-10,4.5-10,10s4.5,10,10,10h49.9v32h-24.1c-5.5,0-10,4.5-10,10s4.5,10,10,10
	h24.1v31h-49.9c-5.5,0-10,4.5-10,10s4.5,10,10,10h49.9v32h-24.1c-5.5,0-10,4.5-10,10s4.5,10,10,10h24.1v38h-92V20z"/>
<g>
</g>
<g>
</g>
<g>
</g>
<g>
</g>
<g>
</g>
<g>
</g>
<g>
</g>
<g>
</g>
<g>
</g>
<g>
</g>
<g>
</g>
<g>
</g>
<g>
</g>
<g>
</g>
<g>
</g>
</svg>
